<mxfile host="app.diagrams.net" agent="Mozilla/5.0 (Windows NT 10.0; Win64; x64) AppleWebKit/537.36 (KHTML, like Gecko) Chrome/131.0.0.0 Safari/537.36" version="25.0.1">
  <diagram id="C5RBs43oDa-KdzZeNtuy" name="Page-1">
    <mxGraphModel dx="4449" dy="1103" grid="1" gridSize="15" guides="1" tooltips="1" connect="1" arrows="1" fold="1" page="1" pageScale="1" pageWidth="1200" pageHeight="1600" math="0" shadow="0">
      <root>
        <mxCell id="WIyWlLk6GJQsqaUBKTNV-0" />
        <mxCell id="WIyWlLk6GJQsqaUBKTNV-1" parent="WIyWlLk6GJQsqaUBKTNV-0" />
        <mxCell id="fpNWBBfMAt2I25Xqpc0E-0" value="&lt;div&gt;Visiteur&lt;/div&gt;&lt;div&gt;&lt;br&gt;&lt;/div&gt;" style="shape=umlActor;verticalLabelPosition=bottom;verticalAlign=top;html=1;outlineConnect=0;" vertex="1" parent="WIyWlLk6GJQsqaUBKTNV-1">
          <mxGeometry x="-1755" y="100" width="30" height="60" as="geometry" />
        </mxCell>
        <mxCell id="fpNWBBfMAt2I25Xqpc0E-3" value="Magasiner&lt;div&gt;&lt;br&gt;&lt;/div&gt;" style="shape=umlActor;verticalLabelPosition=bottom;verticalAlign=top;html=1;outlineConnect=0;" vertex="1" parent="WIyWlLk6GJQsqaUBKTNV-1">
          <mxGeometry x="-1755" y="1125" width="30" height="60" as="geometry" />
        </mxCell>
        <mxCell id="fpNWBBfMAt2I25Xqpc0E-4" value="Utilisateur" style="shape=umlActor;verticalLabelPosition=bottom;verticalAlign=top;html=1;outlineConnect=0;" vertex="1" parent="WIyWlLk6GJQsqaUBKTNV-1">
          <mxGeometry x="-1755" y="630" width="30" height="60" as="geometry" />
        </mxCell>
        <mxCell id="fpNWBBfMAt2I25Xqpc0E-6" value="" style="endArrow=classic;html=1;rounded=0;" edge="1" parent="WIyWlLk6GJQsqaUBKTNV-1" source="fpNWBBfMAt2I25Xqpc0E-0">
          <mxGeometry width="50" height="50" relative="1" as="geometry">
            <mxPoint x="-1385" y="400" as="sourcePoint" />
            <mxPoint x="-1595" y="130" as="targetPoint" />
          </mxGeometry>
        </mxCell>
        <mxCell id="fpNWBBfMAt2I25Xqpc0E-7" value="Afficher page d&#39;acceuil" style="ellipse;whiteSpace=wrap;html=1;fillColor=#d5e8d4;strokeColor=#82b366;" vertex="1" parent="WIyWlLk6GJQsqaUBKTNV-1">
          <mxGeometry x="-1595" y="90" width="120" height="80" as="geometry" />
        </mxCell>
        <mxCell id="fpNWBBfMAt2I25Xqpc0E-8" value="Rechercher des articles" style="ellipse;whiteSpace=wrap;html=1;" vertex="1" parent="WIyWlLk6GJQsqaUBKTNV-1">
          <mxGeometry x="-1378" y="90" width="120" height="80" as="geometry" />
        </mxCell>
        <mxCell id="fpNWBBfMAt2I25Xqpc0E-9" value="afficher les detail article" style="ellipse;whiteSpace=wrap;html=1;" vertex="1" parent="WIyWlLk6GJQsqaUBKTNV-1">
          <mxGeometry x="-1185" y="90" width="120" height="80" as="geometry" />
        </mxCell>
        <mxCell id="fpNWBBfMAt2I25Xqpc0E-41" value="Ajouté au panier" style="ellipse;whiteSpace=wrap;html=1;" vertex="1" parent="WIyWlLk6GJQsqaUBKTNV-1">
          <mxGeometry x="-975" y="90" width="120" height="80" as="geometry" />
        </mxCell>
        <mxCell id="fpNWBBfMAt2I25Xqpc0E-49" value="Ajouté a panier" style="ellipse;whiteSpace=wrap;html=1;" vertex="1" parent="WIyWlLk6GJQsqaUBKTNV-1">
          <mxGeometry x="-1498" y="180" width="120" height="80" as="geometry" />
        </mxCell>
        <mxCell id="fpNWBBfMAt2I25Xqpc0E-50" value="Retirer un article du panier" style="ellipse;whiteSpace=wrap;html=1;" vertex="1" parent="WIyWlLk6GJQsqaUBKTNV-1">
          <mxGeometry x="-1290" y="180" width="120" height="80" as="geometry" />
        </mxCell>
        <mxCell id="fpNWBBfMAt2I25Xqpc0E-52" value="" style="endArrow=none;html=1;rounded=0;" edge="1" parent="WIyWlLk6GJQsqaUBKTNV-1">
          <mxGeometry width="50" height="50" relative="1" as="geometry">
            <mxPoint x="-1680" as="sourcePoint" />
            <mxPoint x="-1680" y="1620" as="targetPoint" />
          </mxGeometry>
        </mxCell>
        <mxCell id="fpNWBBfMAt2I25Xqpc0E-53" value="" style="endArrow=none;html=1;rounded=0;" edge="1" parent="WIyWlLk6GJQsqaUBKTNV-1">
          <mxGeometry width="50" height="50" relative="1" as="geometry">
            <mxPoint x="-840" as="sourcePoint" />
            <mxPoint x="-840" y="1620" as="targetPoint" />
          </mxGeometry>
        </mxCell>
        <mxCell id="fpNWBBfMAt2I25Xqpc0E-55" value="Modifier quantité" style="ellipse;whiteSpace=wrap;html=1;" vertex="1" parent="WIyWlLk6GJQsqaUBKTNV-1">
          <mxGeometry x="-1290" y="280" width="120" height="80" as="geometry" />
        </mxCell>
        <mxCell id="fpNWBBfMAt2I25Xqpc0E-56" value="Validé le panier" style="ellipse;whiteSpace=wrap;html=1;" vertex="1" parent="WIyWlLk6GJQsqaUBKTNV-1">
          <mxGeometry x="-1475" y="315" width="120" height="80" as="geometry" />
        </mxCell>
        <mxCell id="fpNWBBfMAt2I25Xqpc0E-59" value="Extends" style="endArrow=open;endSize=12;dashed=1;html=1;rounded=0;entryX=0.564;entryY=1.017;entryDx=0;entryDy=0;entryPerimeter=0;exitX=0.378;exitY=0.033;exitDx=0;exitDy=0;exitPerimeter=0;" edge="1" parent="WIyWlLk6GJQsqaUBKTNV-1" source="fpNWBBfMAt2I25Xqpc0E-49" target="fpNWBBfMAt2I25Xqpc0E-7">
          <mxGeometry width="160" relative="1" as="geometry">
            <mxPoint x="-1485" y="195" as="sourcePoint" />
            <mxPoint x="-1325" y="195" as="targetPoint" />
          </mxGeometry>
        </mxCell>
        <mxCell id="fpNWBBfMAt2I25Xqpc0E-60" value="Extends" style="endArrow=open;endSize=12;dashed=1;html=1;rounded=0;entryX=1;entryY=0.5;entryDx=0;entryDy=0;exitX=0;exitY=0.5;exitDx=0;exitDy=0;" edge="1" parent="WIyWlLk6GJQsqaUBKTNV-1" source="fpNWBBfMAt2I25Xqpc0E-8" target="fpNWBBfMAt2I25Xqpc0E-7">
          <mxGeometry width="160" relative="1" as="geometry">
            <mxPoint x="-1485" y="248" as="sourcePoint" />
            <mxPoint x="-1512" y="186" as="targetPoint" />
          </mxGeometry>
        </mxCell>
        <mxCell id="fpNWBBfMAt2I25Xqpc0E-61" value="Extends" style="endArrow=open;endSize=12;dashed=1;html=1;rounded=0;entryX=0.436;entryY=0.989;entryDx=0;entryDy=0;entryPerimeter=0;exitX=0.639;exitY=0.025;exitDx=0;exitDy=0;exitPerimeter=0;" edge="1" parent="WIyWlLk6GJQsqaUBKTNV-1" source="fpNWBBfMAt2I25Xqpc0E-56" target="fpNWBBfMAt2I25Xqpc0E-49">
          <mxGeometry width="160" relative="1" as="geometry">
            <mxPoint x="-1448" y="372" as="sourcePoint" />
            <mxPoint x="-1475" y="310" as="targetPoint" />
          </mxGeometry>
        </mxCell>
        <mxCell id="fpNWBBfMAt2I25Xqpc0E-62" value="Extends" style="endArrow=open;endSize=12;dashed=1;html=1;rounded=0;entryX=0.748;entryY=0.941;entryDx=0;entryDy=0;entryPerimeter=0;exitX=0.086;exitY=0.184;exitDx=0;exitDy=0;exitPerimeter=0;" edge="1" parent="WIyWlLk6GJQsqaUBKTNV-1" source="fpNWBBfMAt2I25Xqpc0E-55" target="fpNWBBfMAt2I25Xqpc0E-49">
          <mxGeometry width="160" relative="1" as="geometry">
            <mxPoint x="-1453" y="392" as="sourcePoint" />
            <mxPoint x="-1460" y="325" as="targetPoint" />
          </mxGeometry>
        </mxCell>
        <mxCell id="fpNWBBfMAt2I25Xqpc0E-63" value="Extends" style="endArrow=open;endSize=12;dashed=1;html=1;rounded=0;entryX=1;entryY=0.5;entryDx=0;entryDy=0;exitX=0;exitY=0.438;exitDx=0;exitDy=0;exitPerimeter=0;" edge="1" parent="WIyWlLk6GJQsqaUBKTNV-1" source="fpNWBBfMAt2I25Xqpc0E-50" target="fpNWBBfMAt2I25Xqpc0E-49">
          <mxGeometry width="160" relative="1" as="geometry">
            <mxPoint x="-1295" y="435" as="sourcePoint" />
            <mxPoint x="-1440" y="320" as="targetPoint" />
          </mxGeometry>
        </mxCell>
        <mxCell id="fpNWBBfMAt2I25Xqpc0E-64" value="Validé le panier" style="ellipse;whiteSpace=wrap;html=1;" vertex="1" parent="WIyWlLk6GJQsqaUBKTNV-1">
          <mxGeometry x="-1290" y="395" width="120" height="80" as="geometry" />
        </mxCell>
        <mxCell id="fpNWBBfMAt2I25Xqpc0E-65" value="Extends" style="endArrow=open;endSize=12;dashed=1;html=1;rounded=0;entryX=0.75;entryY=0.938;entryDx=0;entryDy=0;entryPerimeter=0;exitX=0;exitY=0.5;exitDx=0;exitDy=0;" edge="1" parent="WIyWlLk6GJQsqaUBKTNV-1" source="fpNWBBfMAt2I25Xqpc0E-64" target="fpNWBBfMAt2I25Xqpc0E-56">
          <mxGeometry width="160" relative="1" as="geometry">
            <mxPoint x="-1295" y="435" as="sourcePoint" />
            <mxPoint x="-1440" y="320" as="targetPoint" />
          </mxGeometry>
        </mxCell>
        <mxCell id="fpNWBBfMAt2I25Xqpc0E-66" value="Validé la commande" style="ellipse;whiteSpace=wrap;html=1;" vertex="1" parent="WIyWlLk6GJQsqaUBKTNV-1">
          <mxGeometry x="-1170" y="510" width="120" height="80" as="geometry" />
        </mxCell>
        <mxCell id="fpNWBBfMAt2I25Xqpc0E-67" value="Extends" style="endArrow=open;endSize=12;dashed=1;html=1;rounded=0;entryX=1;entryY=0.5;entryDx=0;entryDy=0;exitX=0.475;exitY=0;exitDx=0;exitDy=0;exitPerimeter=0;" edge="1" parent="WIyWlLk6GJQsqaUBKTNV-1" source="fpNWBBfMAt2I25Xqpc0E-66" target="fpNWBBfMAt2I25Xqpc0E-64">
          <mxGeometry width="160" relative="1" as="geometry">
            <mxPoint x="-1391" y="529" as="sourcePoint" />
            <mxPoint x="-1440" y="465" as="targetPoint" />
          </mxGeometry>
        </mxCell>
        <mxCell id="fpNWBBfMAt2I25Xqpc0E-68" value="Authentifier" style="ellipse;whiteSpace=wrap;html=1;" vertex="1" parent="WIyWlLk6GJQsqaUBKTNV-1">
          <mxGeometry x="-1395" y="480" width="120" height="80" as="geometry" />
        </mxCell>
        <mxCell id="fpNWBBfMAt2I25Xqpc0E-69" value="Include" style="endArrow=open;endSize=12;dashed=1;html=1;rounded=0;exitX=0.5;exitY=1;exitDx=0;exitDy=0;" edge="1" parent="WIyWlLk6GJQsqaUBKTNV-1" source="fpNWBBfMAt2I25Xqpc0E-66" target="fpNWBBfMAt2I25Xqpc0E-68">
          <mxGeometry width="160" relative="1" as="geometry">
            <mxPoint x="-1170" y="565" as="sourcePoint" />
            <mxPoint x="-1125" y="672" as="targetPoint" />
          </mxGeometry>
        </mxCell>
        <mxCell id="fpNWBBfMAt2I25Xqpc0E-70" value="Extends" style="endArrow=open;endSize=12;dashed=1;html=1;rounded=0;entryX=1;entryY=0.5;entryDx=0;entryDy=0;" edge="1" parent="WIyWlLk6GJQsqaUBKTNV-1" source="fpNWBBfMAt2I25Xqpc0E-9" target="fpNWBBfMAt2I25Xqpc0E-8">
          <mxGeometry width="160" relative="1" as="geometry">
            <mxPoint x="-1335" y="300" as="sourcePoint" />
            <mxPoint x="-1410" y="285" as="targetPoint" />
          </mxGeometry>
        </mxCell>
        <mxCell id="fpNWBBfMAt2I25Xqpc0E-71" value="Extends" style="endArrow=open;endSize=12;dashed=1;html=1;rounded=0;entryX=1;entryY=0.5;entryDx=0;entryDy=0;exitX=0;exitY=0.5;exitDx=0;exitDy=0;" edge="1" parent="WIyWlLk6GJQsqaUBKTNV-1" source="fpNWBBfMAt2I25Xqpc0E-41" target="fpNWBBfMAt2I25Xqpc0E-9">
          <mxGeometry width="160" relative="1" as="geometry">
            <mxPoint x="-1170" y="145" as="sourcePoint" />
            <mxPoint x="-1243" y="145" as="targetPoint" />
          </mxGeometry>
        </mxCell>
        <mxCell id="fpNWBBfMAt2I25Xqpc0E-74" value="s&#39;inscire&lt;div&gt;&lt;br&gt;&lt;/div&gt;" style="ellipse;whiteSpace=wrap;html=1;" vertex="1" parent="WIyWlLk6GJQsqaUBKTNV-1">
          <mxGeometry x="-1595" y="375" width="120" height="80" as="geometry" />
        </mxCell>
        <mxCell id="fpNWBBfMAt2I25Xqpc0E-75" value="Extends" style="endArrow=open;endSize=12;dashed=1;html=1;rounded=0;entryX=1;entryY=0.5;entryDx=0;entryDy=0;exitX=0;exitY=0.5;exitDx=0;exitDy=0;" edge="1" parent="WIyWlLk6GJQsqaUBKTNV-1" source="fpNWBBfMAt2I25Xqpc0E-68" target="fpNWBBfMAt2I25Xqpc0E-74">
          <mxGeometry width="160" relative="1" as="geometry">
            <mxPoint x="-1170" y="565" as="sourcePoint" />
            <mxPoint x="-1305" y="565" as="targetPoint" />
          </mxGeometry>
        </mxCell>
        <mxCell id="fpNWBBfMAt2I25Xqpc0E-76" value="Extends" style="endArrow=open;endSize=12;dashed=1;html=1;rounded=0;entryX=0.5;entryY=1;entryDx=0;entryDy=0;exitX=0.5;exitY=0;exitDx=0;exitDy=0;" edge="1" parent="WIyWlLk6GJQsqaUBKTNV-1" source="fpNWBBfMAt2I25Xqpc0E-74" target="fpNWBBfMAt2I25Xqpc0E-7">
          <mxGeometry width="160" relative="1" as="geometry">
            <mxPoint x="-1110" y="550" as="sourcePoint" />
            <mxPoint x="-1440" y="550" as="targetPoint" />
          </mxGeometry>
        </mxCell>
        <mxCell id="fpNWBBfMAt2I25Xqpc0E-77" value="" style="endArrow=open;endFill=1;endSize=12;html=1;rounded=0;" edge="1" parent="WIyWlLk6GJQsqaUBKTNV-1" source="fpNWBBfMAt2I25Xqpc0E-4" target="fpNWBBfMAt2I25Xqpc0E-0">
          <mxGeometry width="160" relative="1" as="geometry">
            <mxPoint x="-1500" y="630" as="sourcePoint" />
            <mxPoint x="-1340" y="630" as="targetPoint" />
            <Array as="points">
              <mxPoint x="-1800" y="660" />
              <mxPoint x="-1800" y="130" />
            </Array>
          </mxGeometry>
        </mxCell>
        <mxCell id="fpNWBBfMAt2I25Xqpc0E-78" value="" style="endArrow=open;endFill=1;endSize=12;html=1;rounded=0;exitX=0.25;exitY=0.1;exitDx=0;exitDy=0;exitPerimeter=0;" edge="1" parent="WIyWlLk6GJQsqaUBKTNV-1" source="fpNWBBfMAt2I25Xqpc0E-3">
          <mxGeometry width="160" relative="1" as="geometry">
            <mxPoint x="-1815" y="650" as="sourcePoint" />
            <mxPoint x="-1815" y="120" as="targetPoint" />
            <Array as="points">
              <mxPoint x="-1860" y="1125" />
              <mxPoint x="-1860" y="120" />
            </Array>
          </mxGeometry>
        </mxCell>
        <mxCell id="fpNWBBfMAt2I25Xqpc0E-79" value="&lt;div&gt;Admin&lt;/div&gt;&lt;div&gt;&lt;br&gt;&lt;/div&gt;" style="shape=umlActor;verticalLabelPosition=bottom;verticalAlign=top;html=1;outlineConnect=0;" vertex="1" parent="WIyWlLk6GJQsqaUBKTNV-1">
          <mxGeometry x="-1755" y="1395" width="30" height="60" as="geometry" />
        </mxCell>
        <mxCell id="fpNWBBfMAt2I25Xqpc0E-80" value="" style="endArrow=open;endFill=1;endSize=12;html=1;rounded=0;" edge="1" parent="WIyWlLk6GJQsqaUBKTNV-1">
          <mxGeometry width="160" relative="1" as="geometry">
            <mxPoint x="-1770" y="1440" as="sourcePoint" />
            <mxPoint x="-1770" y="1155" as="targetPoint" />
            <Array as="points">
              <mxPoint x="-1815" y="1440" />
              <mxPoint x="-1815" y="1155" />
            </Array>
          </mxGeometry>
        </mxCell>
      </root>
    </mxGraphModel>
  </diagram>
</mxfile>
